<?xml version="1.0" encoding="UTF-8"?>
<svg id="Capa_2" data-name="Capa 2" xmlns="http://www.w3.org/2000/svg" viewBox="0 0 155.74 39.49">
  <defs>
    <style>
      .cls-1 {
        font-size: 17.49px;
      }

      .cls-1, .cls-2, .cls-3 {
        fill: #548b2e;
      }

      .cls-2 {
        font-family: Noort-Regular, Noort;
        font-size: 11.97px;
      }

      .cls-4 {
        font-family: SwayVariable-Black, 'Sway Variable';
        font-variation-settings: 'CNST' 100, 'wght' 900;
        font-weight: 800;
      }

      .cls-5 {
        letter-spacing: 0em;
      }

      .cls-6 {
        font-family: BookmanOldStyle-Bold, 'Bookman Old Style';
        font-weight: 700;
      }

      .cls-7 {
        letter-spacing: 0em;
      }
    </style>
  </defs>
  <g id="Capa_1-2" data-name="Capa 1">
    <g>
      <path class="cls-3" d="M35.71,31.84c-4.09,2.09-8.78,4.34-12.98,6.21-3.58,1.59-5.89,1.33-9.64.34-2.57-.68-10.81-4.13-12.38-6.04-.84-1.02-.83-2.53-.48-3.76.75-2.67,2.66-5.9,3.75-8.53,1.15-2.77,2.39-9.1,5.8-9.74.69-.13,1.32.16,1.66.1.9-.16,1.61-3.7,1.95-4.55.87-2.24,3.08-6.04,5.9-5.52,1.78.33,4.39,1.48,4.56,3.51.26,2.95-1.28,6.83-2.3,9.57,1.63,1.07,3.4,1.89,4.87,3.19,1.25,1.1,2.39,1.99,1.89,3.8-.78,2.83-2.96,6.65-4.13,9.49-.1.24-.21.43-.15.71l15.84-4.97c1.22.48,1.61,2.4.79,3.38-.51.6-4.01,2.34-4.95,2.82ZM14.61,10.71c1.21-3.35,1.71-6.92,4.81-9.16.08-.39-.16-.33-.44-.25-4.12,1.17-4.67,6.1-5.99,9.55-.97,2.54-2.89,6.34-3.46,8.82-.17.72-.21,1.64.29,2.23.15.08.62-.11.76-.22.67-.51,2.17-6.1,2.61-7.37.33-.96.79-2.63,1.13-3.39.02-.04.24-.07.29-.22ZM18.46,12.01c.74-3.11,2.6-6.11,1.92-9.4-.32-.33-1.77,1.24-2.02,1.53-1.17,1.37-2.28,4.53-2.7,6.32-.06.26-.12.51-.09.78l2.88.77ZM9.43,12.69c.99,2.09,1.75.43,1.74-1.07-.84-.04-2.29-.07-1.74,1.07ZM14.08,16.01c4.09,2.18,8.4,4.48,13.21,3.48l-1.17-1.81c-3.28-2.43-7.01-4.63-11.1-5.27-.12.71-1.3,3.05-.95,3.6ZM18.99,37.21l.24-.22c.38-.87.54-2.02.96-2.83.64-1.24,1.97-2.5,2.64-3.69,1-1.77,2.68-5.81,3.35-7.78.09-.26.41-1.6.34-1.67-1.62-.02-3.25-.08-4.84-.44-2.91-.67-5.51-2.26-8.28-3.22-1.35,1.88-1.07,5.98-4.21,5.54-1.23-.38-.7-3.13-.46-4.03.17-.64,1.32-3.19,1.3-3.5-.04-.53-.94-.97-1.35-1.26-1.35,3.53-2.97,6.94-4.46,10.41-.67,1.57-1.38,3.1-1.96,4.75-.17.49-.74.68-.23,1.29,4.95,3.55,10.81,6.3,16.97,6.65ZM39.55,27.81l-.18-1.03c-2.16.44-4.09,1.47-6.15,2.2-2.69.95-5.83,2.13-8.58,2.74-.46.1-.94,0-1.4.13s-2.18,2.25-1.91,2.6l18.21-6.64Z"/>
      <path class="cls-3" d="M10.78,19.88c-.19-.28-1.35-.05-1.14.66s1.65.07,1.14-.66Z"/>
      <path class="cls-3" d="M17.94,15.13c-.34.35-.27,1.32-.05,1.72.44.8,3.92,1.97,4.89,2.07,1.43.14,2.97-.07,1.73-1.73-.53-.71-4.32-2.69-5.2-2.65-.19,0-1.27.49-1.38.6Z"/>
    </g>
    <g>
      <text class="cls-1" transform="translate(52.07 15.3)"><tspan class="cls-6" x="0" y="0">Nico </tspan><tspan class="cls-4" x="46.17" y="0">y</tspan><tspan class="cls-6" x="56.8" y="0" xml:space="preserve"> Mari</tspan></text>
      <text class="cls-2" transform="translate(75.38 32.23)"><tspan x="0" y="0">ja</tspan><tspan class="cls-7" x="9.96" y="0">r</tspan><tspan class="cls-5" x="15.05" y="0">dinería</tspan></text>
    </g>
  </g>
</svg>