<?xml version="1.0" encoding="UTF-8"?>
<svg id="Capa_2" data-name="Capa 2" xmlns="http://www.w3.org/2000/svg" viewBox="0 0 291.92 97.25">
  <defs>
    <style>
      .cls-1 {
        font-family: Nunito-Black, Nunito;
        font-size: 36px;
        font-variation-settings: 'wght' 900;
        font-weight: 800;
      }

      .cls-1, .cls-2 {
        fill: #548b2e;
      }
    </style>
  </defs>
  <g id="Capa_1-2" data-name="Capa 1">
    <g>
      <path class="cls-2" d="M84.15,28.26c-5.39,13.55-21.11,20.77-34.23,24.64-.48,3.14-.93,6.32-1.24,9.48-.66,6.58-1.36,14.43-.91,20.99.08,1.21.99,4.3.91,5.02-.14,1.41-3.51,2.41-4.8,2.06-.54-.14-2.18-1.49-2.39-1.95-.39-.85.82-3.83.82-5.13,0-1.75-1.78-5.53-2.56-7.27-1.97-4.39-4.44-8.63-6.81-12.81-.61-.37-1.32.08-1.94.11-7.49.29-15.03.29-21.71-3.61C1.37,55.19-.46,46.71.09,38.1c11.6-2.25,29.9-2.6,35.22,10.48.48,1.18,1.49,4.42,1.49,5.59v5.25s-.37.41-.45.34c-1.29-5.58-3.67-10.85-8.11-14.6-4.82-4.07-13.04-6.66-19.27-7.08-.41-.03-3.65-.07-3.65.11,1.21.13,2.44.21,3.65.34,11.82,1.34,22.06,6.78,25.67,18.71,1.87,6.19,2.44,9.4,5.78,15.21.94,1.64,2,3.5,3.23,4.87.44-3.69,1.23-7.36,1.6-11.07.73-7.31.08-11.03-.87-18.06-2.81-20.59,8.73-34.87,26.2-43.89,1.75-.91,3.65-1.59,5.43-2.45.27-.13.68-.12.73-.52-2.01.42-3.94,1.44-5.79,2.32-.21.1-.32.39-.37.42-15.72,7.57-28.68,19.25-28.3,38.23l.92,9c-.69-.63-1.16-1.79-1.56-2.66C29.54,22.59,51.94,6.55,74.68,1.11c1.93-.46,3.95-.32,5.8-1.11.14.03.73.92.82,1.11,3.99,8.26,6.37,18.31,2.85,27.15Z"/>
      <text class="cls-1" transform="translate(102.89 43.97)"><tspan x="0" y="0">PARQUES </tspan><tspan x="20.48" y="43.2">VERDES</tspan></text>
    </g>
  </g>
</svg>