<?xml version="1.0" encoding="UTF-8"?>
<svg id="Capa_2" data-name="Capa 2" xmlns="http://www.w3.org/2000/svg" viewBox="0 0 152.92 50">
  <defs>
    <style>
      .cls-1 {
        font-family: SwayVariable-Black, 'Sway Variable';
        font-size: 17.49px;
        font-variation-settings: 'CNST' 100, 'wght' 900;
        font-weight: 800;
      }

      .cls-1, .cls-2, .cls-3 {
        fill: #fafafa;
      }

      .cls-4 {
        letter-spacing: 0em;
      }

      .cls-5 {
        letter-spacing: 0em;
      }

      .cls-6 {
        letter-spacing: .01em;
      }

      .cls-7 {
        letter-spacing: 0em;
      }

      .cls-2 {
        font-family: Noort-Regular, Noort;
        font-size: 11.97px;
      }

      .cls-8 {
        letter-spacing: 0em;
      }

      .cls-9 {
        letter-spacing: -.01em;
      }

      .cls-10 {
        letter-spacing: 0em;
      }

      .cls-11 {
        letter-spacing: -.02em;
      }
    </style>
  </defs>
  <g id="Capa_1-2" data-name="Capa 1">
    <g>
      <path class="cls-3" d="M45.91,40.55c-5.26,2.69-11.29,5.58-16.69,7.98-4.61,2.05-7.58,1.71-12.4.44-3.31-.87-13.9-5.31-15.92-7.76-1.09-1.32-1.06-3.25-.62-4.84.96-3.43,3.42-7.58,4.82-10.97,1.47-3.56,3.08-11.7,7.46-12.52.88-.16,1.7.21,2.13.13,1.15-.21,2.08-4.76,2.5-5.86,1.12-2.88,3.96-7.76,7.59-7.1,2.28.42,5.64,1.91,5.87,4.51.33,3.79-1.64,8.78-2.96,12.31,2.1,1.38,4.37,2.43,6.27,4.1,1.61,1.41,3.07,2.56,2.43,4.88-1,3.64-3.81,8.55-5.31,12.2-.13.31-.27.56-.2.91l20.37-6.39c1.57.62,2.07,3.09,1.01,4.34-.65.77-5.16,3.01-6.36,3.63ZM18.79,13.38c1.56-4.31,2.2-8.89,6.18-11.78.1-.51-.21-.42-.57-.32-5.29,1.5-6.01,7.85-7.7,12.28-1.24,3.26-3.72,8.15-4.45,11.33-.22.93-.27,2.11.38,2.87.19.11.79-.14.98-.28.86-.66,2.79-7.85,3.36-9.47.43-1.24,1.01-3.38,1.45-4.36.02-.05.31-.09.38-.28ZM23.74,15.05c.95-4,3.34-7.86,2.47-12.09-.41-.43-2.27,1.6-2.59,1.97-1.51,1.76-2.94,5.82-3.47,8.13-.08.33-.15.66-.11,1l3.7.99ZM12.12,15.93c1.28,2.69,2.25.55,2.24-1.37-1.08-.05-2.94-.1-2.24,1.37ZM18.1,20.2c5.25,2.81,10.8,5.76,16.99,4.47l-1.5-2.32c-4.21-3.13-9.01-5.96-14.27-6.78-.15.92-1.67,3.92-1.22,4.63ZM24.41,47.46l.31-.28c.49-1.12.7-2.59,1.23-3.64.82-1.6,2.53-3.22,3.39-4.74,1.29-2.28,3.45-7.47,4.31-10,.11-.33.53-2.06.44-2.15-2.09-.02-4.18-.1-6.22-.57-3.74-.86-7.09-2.91-10.65-4.14-1.74,2.41-1.38,7.69-5.41,7.13-1.58-.49-.91-4.02-.59-5.18.22-.82,1.7-4.1,1.67-4.5-.06-.68-1.21-1.25-1.74-1.62-1.73,4.54-3.82,8.92-5.74,13.38-.87,2.01-1.78,3.99-2.53,6.11-.22.63-.96.87-.29,1.65,6.36,4.57,13.89,8.11,21.81,8.55ZM50.86,35.37l-.23-1.33c-2.78.56-5.26,1.9-7.9,2.83-3.46,1.22-7.5,2.74-11.03,3.52-.59.13-1.21-.01-1.8.17s-2.81,2.9-2.45,3.34l23.42-8.54Z"/>
      <path class="cls-3" d="M13.86,25.17c-.25-.36-1.73-.07-1.47.85s2.12.09,1.47-.85Z"/>
      <path class="cls-3" d="M23.06,19.06c-.44.45-.34,1.7-.06,2.21.57,1.03,5.04,2.54,6.29,2.66,1.83.17,3.82-.09,2.23-2.23-.68-.92-5.55-3.46-6.68-3.41-.24,0-1.64.63-1.78.77Z"/>
    </g>
    <g>
      <text class="cls-1" transform="translate(55.43 24.67)"><tspan class="cls-6" x="0" y="0">T</tspan><tspan x="11.42" y="0">u </tspan><tspan class="cls-11" x="27.3" y="0">N</tspan><tspan class="cls-10" x="41.05" y="0">o</tspan><tspan class="cls-5" x="51.26" y="0">m</tspan><tspan class="cls-10" x="68.4" y="0">b</tspan><tspan class="cls-5" x="79.41" y="0">r</tspan><tspan class="cls-4" x="87.92" y="0">e</tspan></text>
      <text class="cls-2" transform="translate(78.74 39.6)"><tspan x="0" y="0">ja</tspan><tspan class="cls-7" x="9.96" y="0">r</tspan><tspan class="cls-8" x="15.05" y="0">dine</tspan><tspan class="cls-9" x="39.73" y="0">r</tspan><tspan x="44.83" y="0">o</tspan></text>
    </g>
  </g>
</svg>