<?xml version="1.0" encoding="UTF-8"?>
<svg id="Capa_2" data-name="Capa 2" xmlns="http://www.w3.org/2000/svg" viewBox="0 0 51.29 50">
  <defs>
    <style>
      .cls-1 {
        letter-spacing: 0em;
      }

      .cls-2 {
        letter-spacing: 0em;
      }

      .cls-3 {
        font-family: Noort-Regular, Noort;
        font-size: 6.28px;
      }

      .cls-3, .cls-4, .cls-5 {
        fill: #548b2e;
      }

      .cls-6 {
        letter-spacing: -.01em;
      }

      .cls-4 {
        font-family: SwayVariable-Black, 'Sway Variable';
        font-size: 9.18px;
        font-variation-settings: 'CNST' 100, 'wght' 900;
        font-weight: 800;
      }

      .cls-7 {
        letter-spacing: 0em;
      }

      .cls-8 {
        letter-spacing: .01em;
      }

      .cls-9 {
        letter-spacing: 0em;
      }

      .cls-10 {
        letter-spacing: 0em;
      }

      .cls-11 {
        letter-spacing: -.02em;
      }
    </style>
  </defs>
  <g id="Capa_1-2" data-name="Capa 1">
    <g>
      <path class="cls-5" d="M39.72,21.3c-2.76,1.41-5.93,2.93-8.76,4.19-2.42,1.08-3.98.9-6.51.23-1.74-.46-7.3-2.79-8.36-4.08-.57-.69-.56-1.7-.32-2.54.5-1.8,1.79-3.98,2.53-5.76.77-1.87,1.62-6.15,3.92-6.57.46-.09.89.11,1.12.07.61-.11,1.09-2.5,1.31-3.08.59-1.51,2.08-4.08,3.98-3.73,1.2.22,2.96,1,3.08,2.37.18,1.99-.86,4.61-1.55,6.46,1.1.72,2.29,1.28,3.29,2.15.84.74,1.61,1.34,1.28,2.57-.53,1.91-2,4.49-2.79,6.41-.07.16-.14.29-.1.48l10.7-3.36c.82.33,1.09,1.62.53,2.28-.34.41-2.71,1.58-3.34,1.9ZM25.48,7.03c.82-2.26,1.16-4.67,3.25-6.18.05-.27-.11-.22-.3-.17-2.78.79-3.16,4.12-4.04,6.45-.65,1.71-1.95,4.28-2.34,5.95-.11.49-.14,1.11.2,1.51.1.06.42-.08.51-.15.45-.35,1.47-4.12,1.76-4.97.23-.65.53-1.78.76-2.29.01-.03.16-.05.2-.15ZM28.08,7.9c.5-2.1,1.75-4.13,1.3-6.35-.22-.23-1.19.84-1.36,1.04-.79.93-1.54,3.06-1.82,4.27-.04.18-.08.34-.06.53l1.94.52ZM21.98,8.37c.67,1.41,1.18.29,1.18-.72-.57-.03-1.54-.05-1.18.72ZM25.12,10.61c2.76,1.47,5.67,3.02,8.92,2.35l-.79-1.22c-2.21-1.64-4.73-3.13-7.49-3.56-.08.48-.88,2.06-.64,2.43ZM28.43,24.92l.16-.15c.26-.59.37-1.36.65-1.91.43-.84,1.33-1.69,1.78-2.49.68-1.2,1.81-3.92,2.26-5.25.06-.17.28-1.08.23-1.13-1.1-.01-2.19-.05-3.27-.3-1.96-.45-3.72-1.53-5.59-2.17-.91,1.27-.72,4.04-2.84,3.74-.83-.26-.48-2.11-.31-2.72.12-.43.89-2.16.88-2.36-.03-.36-.64-.66-.91-.85-.91,2.38-2.01,4.69-3.01,7.03-.46,1.06-.93,2.1-1.33,3.21-.12.33-.5.46-.15.87,3.34,2.4,7.3,4.26,11.46,4.49ZM42.32,18.57l-.12-.7c-1.46.29-2.76,1-4.15,1.49-1.82.64-3.94,1.44-5.79,1.85-.31.07-.63,0-.95.09s-1.47,1.52-1.29,1.76l12.3-4.49Z"/>
      <path class="cls-5" d="M22.89,13.22c-.13-.19-.91-.03-.77.45s1.11.05.77-.45Z"/>
      <path class="cls-5" d="M27.72,10.01c-.23.24-.18.89-.03,1.16.3.54,2.65,1.33,3.3,1.39.96.09,2.01-.05,1.17-1.17-.36-.48-2.92-1.81-3.51-1.79-.13,0-.86.33-.93.4Z"/>
    </g>
    <g>
      <text class="cls-4" transform="translate(.09 38.35)"><tspan class="cls-8" x="0" y="0">T</tspan><tspan class="cls-1" x="6" y="0">u </tspan><tspan class="cls-11" x="14.34" y="0">N</tspan><tspan class="cls-10" x="21.56" y="0">o</tspan><tspan class="cls-2" x="26.92" y="0">m</tspan><tspan class="cls-7" x="35.92" y="0">b</tspan><tspan class="cls-2" x="41.7" y="0">r</tspan><tspan class="cls-9" x="46.17" y="0">e</tspan></text>
      <text class="cls-3" transform="translate(12.33 46.19)"><tspan x="0" y="0">ja</tspan><tspan class="cls-6" x="5.23" y="0">r</tspan><tspan x="7.91" y="0">dine</tspan><tspan class="cls-6" x="20.86" y="0">r</tspan><tspan x="23.54" y="0">o</tspan></text>
    </g>
  </g>
</svg>